<?xml version="1.0" encoding="UTF-8"?>
<svg version="1.1" xmlns="http://www.w3.org/2000/svg" width="1920" height="1080">
<path d="M0 0 C633.6 0 1267.2 0 1920 0 C1920 356.4 1920 712.8 1920 1080 C1286.4 1080 652.8 1080 0 1080 C0 723.6 0 367.2 0 0 Z " fill="#FEFEFE" transform="translate(0,0)"/>
<path d="M0 0 C0.68723145 0.3000293 1.37446289 0.60005859 2.08251953 0.90917969 C10.66039631 4.74896847 18.53954977 9.26384489 26 15 C27.05316406 15.77730469 28.10632812 16.55460938 29.19140625 17.35546875 C48.81379043 32.06322264 63.39981193 50.56673171 77.30859375 70.57421875 C78.37519372 72.10391525 79.44967628 73.62817373 80.53515625 75.14453125 C82.38725022 77.74292353 84.19587017 80.36801536 86 83 C86.46712402 83.67256836 86.93424805 84.34513672 87.41552734 85.03808594 C101.91033021 106.03180665 116.4132819 131.79670706 116.3125 158 C116.32861328 158.83789062 116.34472656 159.67578125 116.36132812 160.5390625 C116.36929459 170.83173965 112.83677509 179.98475264 105.9375 187.625 C101.62053127 191.78311923 96.47535156 193.76122685 91 196 C90.06220703 196.53173828 90.06220703 196.53173828 89.10546875 197.07421875 C83.43546219 199.56733852 76.78694192 199.2108068 70.6875 199.25 C69.50124023 199.2809375 69.50124023 199.2809375 68.29101562 199.3125 C58.90148299 199.37352052 50.74628898 196.04241548 42.1875 192.5 C34.13757665 189.23668672 26.06519476 186.03406642 17.95718384 182.91796875 C16.11577557 182.20803965 14.27791919 181.48891906 12.44018555 180.76953125 C0.6705816 176.26323569 -10.29401836 173.46001705 -22.9375 173.6875 C-24.49936035 173.7033313 -24.49936035 173.7033313 -26.09277344 173.71948242 C-43.25546305 174.01460804 -58.80337014 177.98737322 -74.875 183.875 C-78.40234375 185.15234375 -78.40234375 185.15234375 -81.9296875 186.4296875 C-86.40467215 188.05631821 -86.40467215 188.05631821 -90.8793335 189.68383789 C-92.7467479 190.36211135 -94.61555146 191.03655629 -96.484375 191.7109375 C-98.13131348 192.30720947 -98.13131348 192.30720947 -99.81152344 192.91552734 C-114.05063733 197.75857052 -134.29050129 201.91927922 -148.875 196.25 C-151.09765625 195.13671875 -151.09765625 195.13671875 -153 194 C-154.6396875 193.0409375 -154.6396875 193.0409375 -156.3125 192.0625 C-159.12215767 189.90625109 -161.49900933 187.50099067 -164 185 C-164.99 184.67 -165.98 184.34 -167 184 C-175.39639265 172.26744067 -178.82348313 158.11394944 -176.68652344 143.91748047 C-174.64019871 132.28064405 -171.0639613 121.07156204 -167 110 C-166.75443359 109.32179199 -166.50886719 108.64358398 -166.25585938 107.94482422 C-159.35172003 89.1861501 -149.19726541 71.50849397 -138 55 C-137.30003906 53.90945313 -136.60007812 52.81890625 -135.87890625 51.6953125 C-134 49 -134 49 -132 48 C-131.43539062 46.97777344 -130.87078125 45.95554687 -130.2890625 44.90234375 C-127.88946701 40.55847768 -124.78318711 37.14178824 -121.375 33.5625 C-120.75254395 32.90435303 -120.13008789 32.24620605 -119.48876953 31.56811523 C-114.6685506 26.54607059 -109.68752317 22.03199999 -104 18 C-103.02160156 17.30261719 -102.04320312 16.60523438 -101.03515625 15.88671875 C-95.92487914 12.36172306 -90.93372438 9.25368856 -85.17578125 6.921875 C-82.87133833 5.94548626 -80.75298193 4.77155646 -78.5625 3.5625 C-73.82391284 1.15973132 -68.97326901 -0.32818235 -63.875 -1.75 C-63.1229126 -1.96068115 -62.3708252 -2.1713623 -61.59594727 -2.38842773 C-42.60217841 -7.4671647 -18.19991425 -8.03997241 0 0 Z " fill="#F8943A" transform="translate(1003,552)"/>
<path d="M0 0 C0 0.66 0 1.32 0 2 C0.99 2.2784375 0.99 2.2784375 2 2.5625 C6.31761759 4.63135843 9.52999606 7.74051931 13 11 C13.57492187 11.50660156 14.14984375 12.01320313 14.7421875 12.53515625 C16 14 16 14 16 17 C16.66 17 17.32 17 18 17 C18.495 18.98 18.495 18.98 19 21 C19.66 21 20.32 21 21 21 C33.34617494 48.00975489 34.66890335 77.92009313 24.27734375 105.94921875 C16.1455166 127.07562396 2.0140708 145.19537731 -18.875 154.875 C-29.28917109 159.45966424 -40.44600095 159.42502568 -51.11328125 155.39453125 C-59.05533534 151.55784206 -65.82903649 146.14229857 -71 139 C-71.51175781 138.30003906 -72.02351562 137.60007812 -72.55078125 136.87890625 C-86.7968783 116.48188889 -89.34470329 89.13207931 -85.12890625 65.00390625 C-80.05425293 41.7150293 -67.32853199 18.35833805 -48 4 C-32.6706915 -4.98628384 -16.55871676 -7.02491014 0 0 Z " fill="#F8943A" transform="translate(1062,329)"/>
<path d="M0 0 C6.78830111 5.08824676 13.47605824 10.82459183 17.66894531 18.25097656 C18.30960938 19.01796875 18.95027344 19.78496094 19.61035156 20.57519531 C34.59884178 40.05738848 39.75972927 70.35423337 37.66894531 94.25097656 C35.26120325 112.25388836 27.96160414 130.47449904 13.23144531 141.75097656 C11.40406223 142.95916372 9.55075347 144.12944047 7.66894531 145.25097656 C6.91355469 145.70472656 6.15816406 146.15847656 5.37988281 146.62597656 C-3.26894953 150.90581112 -14.56838912 150.72925399 -23.77246094 148.36816406 C-32.61724896 144.88560085 -41.17848716 139.50787374 -48.33105469 133.25097656 C-48.33105469 132.59097656 -48.33105469 131.93097656 -48.33105469 131.25097656 C-49.32105469 130.92097656 -50.31105469 130.59097656 -51.33105469 130.25097656 C-53.17455595 128.27047843 -54.85438516 126.31187552 -56.51855469 124.18847656 C-57.00396729 123.5694043 -57.48937988 122.95033203 -57.98950195 122.3125 C-63.17294185 115.47182788 -66.85913015 108.06821139 -70.33105469 100.25097656 C-70.75128906 99.32285156 -71.17152344 98.39472656 -71.60449219 97.43847656 C-74.25228945 91.22710254 -75.92402884 84.84484919 -77.33105469 78.25097656 C-77.53859375 77.31253906 -77.74613281 76.37410156 -77.95996094 75.40722656 C-82.11430733 53.32818281 -80.62619685 29.46046639 -68.33105469 10.25097656 C-50.02433675 -14.47119297 -24.8599777 -17.36751908 0 0 Z " fill="#F8943A" transform="translate(912.3310546875,337.7490234375)"/>
<path d="M0 0 C9.66184668 7.26841049 16.21301468 16.08496622 20.4453125 27.37109375 C20.765 28.17546875 21.0846875 28.97984375 21.4140625 29.80859375 C27.91795537 49.07938745 23.14488877 75.27584147 14.62109375 93.11328125 C2.55917055 116.27537962 -12.65267446 133.20316221 -37.9921875 141.49609375 C-47.95021292 143.83030009 -57.52589708 143.15382714 -66.5546875 138.37109375 C-67.59882812 137.86255859 -67.59882812 137.86255859 -68.6640625 137.34375 C-80.1777163 131.0737176 -87.81893361 116.97839285 -91.4921875 104.80859375 C-97.13825871 78.19140091 -88.97187928 50.70372861 -74.5546875 28.37109375 C-68.63862722 19.97051098 -61.57247632 11.52411593 -52.5546875 6.37109375 C-51.8946875 6.37109375 -51.2346875 6.37109375 -50.5546875 6.37109375 C-50.5546875 5.71109375 -50.5546875 5.05109375 -50.5546875 4.37109375 C-34.96616613 -3.28686031 -16.18866977 -10.32213348 0 0 Z " fill="#F8943A" transform="translate(1162.5546875,457.62890625)"/>
<path d="M0 0 C4.79051664 3.12103725 9.56248391 6.40900075 13.65234375 10.421875 C13.65234375 11.081875 13.65234375 11.741875 13.65234375 12.421875 C15.13734375 12.916875 15.13734375 12.916875 16.65234375 13.421875 C33.76911224 30.50427247 43.73998524 56.42157517 44.02734375 80.421875 C43.7816569 91.77930795 42.22698595 103.36724762 36.65234375 113.421875 C36.32878906 114.081875 36.00523437 114.741875 35.671875 115.421875 C31.17874063 123.72687428 22.55798069 130.78049316 13.625 133.82421875 C-2.06524136 136.97876136 -15.71941032 133.21511028 -29.22265625 125.109375 C-51.32247558 110.01278691 -66.14136322 87.06753974 -71.6953125 60.94140625 C-74.68554078 43.42950561 -73.54931256 21.3072702 -63.78125 5.9609375 C-59.73455175 1.05983196 -54.86431636 -2.48073112 -49.34765625 -5.578125 C-48.63351562 -5.99320312 -47.919375 -6.40828125 -47.18359375 -6.8359375 C-31.32218726 -14.63037437 -13.86487108 -8.76049714 0 0 Z " fill="#F8943B" transform="translate(815.34765625,471.578125)"/>
<path d="M0 0 C0 4.1059389 -1.62998627 5.02486875 -4.4375 7.9375 C-8.36487148 11.86805982 -8.36487148 11.86805982 -10 17 C-10.66 17 -11.32 17 -12 17 C-11.67 17.99 -11.34 18.98 -11 20 C-10.59624489 24.92581234 -10.51503881 27.09473911 -12.875 31.5 C-13.57625 32.325 -14.2775 33.15 -15 34 C-15.66 34 -16.32 34 -17 34 C-18.68631662 39.85834562 -19.27473714 45.01594431 -19.1953125 51.09375 C-19.19106766 52.34194519 -19.19106766 52.34194519 -19.18673706 53.61535645 C-19.17564286 56.24372431 -19.15055925 58.8717371 -19.125 61.5 C-19.11495626 63.29426587 -19.10583286 65.08853715 -19.09765625 66.8828125 C-19.07573893 71.25534279 -19.0412849 75.62761143 -19 80 C-19.33 80 -19.66 80 -20 80 C-24.75849943 57.86448032 -23.84413261 33.54117851 -12.15429688 13.77734375 C-9.29659092 9.37715353 -5.75838671 5.63362699 -2 2 C-1.34 1.34 -0.68 0.68 0 0 Z " fill="#ED994F" transform="translate(855,336)"/>
<path d="M0 0 C-1.32 0.33 -2.64 0.66 -4 1 C-4.495 0.01 -4.495 0.01 -5 -1 C-6.89533342 -1.46523063 -6.89533342 -1.46523063 -9.0625 -1.625 C-10.361875 -1.74875 -11.66125 -1.8725 -13 -2 C-13 -2.66 -13 -3.32 -13 -4 C-13.99 -4.33 -14.98 -4.66 -16 -5 C-16 -5.33 -16 -5.66 -16 -6 C-17.134375 -6.144375 -18.26875 -6.28875 -19.4375 -6.4375 C-23 -7 -23 -7 -24 -8 C-30.93998781 -8.43249199 -37.4473755 -8.43818586 -44 -6 C-44 -5.34 -44 -4.68 -44 -4 C-47.75 -2.875 -47.75 -2.875 -50 -4 C-50 -3.34 -50 -2.68 -50 -2 C-51.4540625 -1.319375 -51.4540625 -1.319375 -52.9375 -0.625 C-56.07079582 0.65786221 -56.07079582 0.65786221 -57 3 C-57.66 3 -58.32 3 -59 3 C-59 3.99 -59 4.98 -59 6 C-58.01 6.33 -57.02 6.66 -56 7 C-57.8125 7.6875 -57.8125 7.6875 -60 8 C-61.75 6.5625 -61.75 6.5625 -63 5 C-59.56326566 -0.0803899 -55.21849606 -2.97177892 -50 -6 C-49.28199219 -6.41894531 -48.56398438 -6.83789062 -47.82421875 -7.26953125 C-31.60736027 -15.19590595 -14.1171067 -8.85351194 0 0 Z M-7 1 C-5 2 -5 2 -5 2 Z " fill="#EEA363" transform="translate(816,472)"/>
<path d="M0 0 C1.875 0.25 1.875 0.25 4 1 C4.28875 1.61875 4.5775 2.2375 4.875 2.875 C6.54146784 6.02277259 8.77010845 6.67004465 12 8 C14.73572585 8.69907414 14.73572585 8.69907414 17 9 C17 9.66 17 10.32 17 11 C20.95807715 11.11761144 24.91569621 11.18771882 28.875 11.25 C29.98359375 11.28351562 31.0921875 11.31703125 32.234375 11.3515625 C38.93394661 11.43038099 43.93675401 10.73723997 49.98095703 7.76855469 C52 7 52 7 55 8 C43.51560955 13.46479449 32.01607707 17.56610239 19.1640625 14.2734375 C16.66559783 13.32786472 14.35655759 12.25601246 12 11 C10.88625 10.42185547 10.88625 10.42185547 9.75 9.83203125 C5.13184093 7.20884898 2.58603525 4.63331316 0 0 Z " fill="#F4A661" transform="translate(1084,585)"/>
<path d="M0 0 C0.74097427 0.00045822 1.48194855 0.00091644 2.24537659 0.00138855 C3.79405339 0.00438425 5.34272792 0.01218885 6.89135742 0.0246582 C9.27207967 0.0431096 11.65241626 0.04516618 14.03320312 0.04492188 C15.54297214 0.04983083 17.05273852 0.05565641 18.5625 0.0625 C19.27595078 0.06361282 19.98940155 0.06472565 20.72447205 0.06587219 C25.70028948 0.11435198 25.70028948 0.11435198 26.81640625 1.23046875 C29.55612812 1.68784381 32.30202644 2.06631339 35.0546875 2.4375 C38.29524493 3.36795708 39.6534236 4.69756983 41.81640625 7.23046875 C41.00945313 6.94171875 40.2025 6.65296875 39.37109375 6.35546875 C21.59879691 0.92190029 2.11584511 2.42555191 -16.18359375 4.23046875 C-16.18359375 3.57046875 -16.18359375 2.91046875 -16.18359375 2.23046875 C-10.63598255 0.66312979 -5.74893184 -0.05907358 0 0 Z " fill="#FDEBD0" transform="translate(960.18359375,544.76953125)"/>
<path d="M0 0 C2.64 0.66 5.28 1.32 8 2 C8.33 3.32 8.66 4.64 9 6 C10.299375 6.1546875 10.299375 6.1546875 11.625 6.3125 C15.18494999 7.037675 17.76571074 8.38285537 21 10 C31.03992313 12.40085118 38.74637283 10.42034125 47.875 6.25 C51 5 51 5 54 6 C51.91870896 6.98350025 49.83488641 7.96164458 47.75 8.9375 C46.58984375 9.48277344 45.4296875 10.02804687 44.234375 10.58984375 C34.59674544 14.79175712 23.65221303 14.04993339 13.91015625 10.41796875 C8.81960448 7.93760594 4.28761907 4.68836523 0 1 C0 0.67 0 0.34 0 0 Z " fill="#E79E5A" transform="translate(997,474)"/>
<path d="M0 0 C0.99 0.33 1.98 0.66 3 1 C5.64637229 6.82201904 6.90627754 12.72074637 8 19 C8.66 19 9.32 19 10 19 C11.03042947 22.44698827 11.19794703 25.70925282 11.31640625 29.296875 C11.37924805 31.10478516 11.37924805 31.10478516 11.44335938 32.94921875 C11.48267578 34.20347656 11.52199219 35.45773437 11.5625 36.75 C11.60568359 38.01972656 11.64886719 39.28945313 11.69335938 40.59765625 C11.79939722 43.73166365 11.90146058 46.86574933 12 50 C11.34 50 10.68 50 10 50 C10 52.31 10 54.62 10 57 C9.34 57 8.68 57 8 57 C8.15984375 55.88109375 8.3196875 54.7621875 8.484375 53.609375 C9.9998419 41.38890784 10.03057833 28.70787039 6 17 C5.63817627 15.93628174 5.63817627 15.93628174 5.26904297 14.85107422 C3.57106273 9.878786 1.80635797 4.93387095 0 0 Z " fill="#FEEFD7" transform="translate(1109,671)"/>
<path d="M0 0 C0.33 0 0.66 0 1 0 C4.82250129 19.31728331 4.08621832 40.21387277 -2 59 C-2.33 59 -2.66 59 -3 59 C-3.05422947 57.5629191 -3.09289723 56.12524538 -3.125 54.6875 C-3.14820313 53.88699219 -3.17140625 53.08648437 -3.1953125 52.26171875 C-3 50 -3 50 -1 47 C0.09611855 41.51335374 0.13191005 36.1334003 0.09765625 30.56640625 C0.0962413 29.68846909 0.09482635 28.81053192 0.09336853 27.9059906 C0.08780821 25.12479118 0.07526321 22.34367474 0.0625 19.5625 C0.05747987 17.66731888 0.05291786 15.77213648 0.04882812 13.87695312 C0.0378518 9.25127052 0.02061482 4.62564929 0 0 Z " fill="#EBA263" transform="translate(1090,371)"/>
<path d="M0 0 C1.40167793 2.80335585 0.96536981 4.0349356 0 7 C-2.4375 9.8125 -2.4375 9.8125 -5 12 C-5.66 12 -6.32 12 -7 12 C-7 12.66 -7 13.32 -7 14 C-7.99 14 -8.98 14 -10 14 C-10.185625 14.70125 -10.37125 15.4025 -10.5625 16.125 C-12.55404211 20.10808423 -15.28120415 22.58239773 -19 25 C-22.4375 25.875 -22.4375 25.875 -25 26 C-22.44123742 23.33462232 -19.75366293 20.83582938 -17 18.375 C-16.34 17.78460938 -15.68 17.19421875 -15 16.5859375 C-13 15 -13 15 -10.875 14.0390625 C-8.46966707 12.70610717 -8.11577368 11.48148067 -7 9 C-5.8237752 7.39267019 -4.6136253 5.80975038 -3.375 4.25 C-2.74335937 3.45078125 -2.11171875 2.6515625 -1.4609375 1.828125 C-0.97882813 1.22484375 -0.49671875 0.6215625 0 0 Z " fill="#FEEDD6" transform="translate(1076,454)"/>
<path d="M0 0 C0.66 0.66 1.32 1.32 2 2 C1.67 2.99 1.34 3.98 1 5 C2.32 5.33 3.64 5.66 5 6 C2.03 9.3 -0.94 12.6 -4 16 C-4 15.01 -4 14.02 -4 13 C-4.99 12.67 -5.98 12.34 -7 12 C-6.39056096 8.44493894 -5.65398508 5.22091831 -4 2 C-1.875 0.6875 -1.875 0.6875 0 0 Z " fill="#EE994B" transform="translate(1159,566)"/>
<path d="M0 0 C0.66 0 1.32 0 2 0 C2.20496094 1.07121094 2.40992188 2.14242188 2.62109375 3.24609375 C2.89302709 4.64326851 3.16517352 6.04040181 3.4375 7.4375 C3.57220703 8.14455078 3.70691406 8.85160156 3.84570312 9.58007812 C4.28406898 13.08429264 4.28406898 13.08429264 6 16 C7.37813798 24.64040042 7.11908707 33.46873833 7.0625 42.1875 C7.05746963 43.53450352 7.05290947 44.88150889 7.04882812 46.22851562 C7.03715354 49.48572537 7.02077883 52.74283778 7 56 C6.34 56 5.68 56 5 56 C4.67 56.66 4.34 57.32 4 58 C4.165 56.7625 4.33 55.525 4.5 54.25 C5.98887044 38.42797387 4.70899575 23.76230626 1.45751953 8.23535156 C0.89795365 5.50142134 0.43216138 2.75673472 0 0 Z " fill="#FEF1D8" transform="translate(944,384)"/>
<path d="M0 0 C2.28468646 3.42702968 3.55366298 6.96773367 4.9375 10.8125 C6.70568803 15.71910872 8.66095504 20.3288923 11 25 C11 25.66 11 26.32 11 27 C10.01 26.67 9.02 26.34 8 26 C8 24.68 8 23.36 8 22 C6.68 22 5.36 22 4 22 C3.01879536 18.94736336 3.01879536 17.05263664 4 14 C2.02 14.99 2.02 14.99 0 16 C-1.13055826 12.60832521 -0.7231605 10.45510019 0 7 C0.03824623 4.66698014 0.04574284 2.33288492 0 0 Z " fill="#FEEAD1" transform="translate(745,538)"/>
<path d="M0 0 C0.60585938 0.39832031 1.21171875 0.79664063 1.8359375 1.20703125 C13.95863361 8.87230525 24.00205377 9.4117043 38 9 C37.01171875 10.48828125 37.01171875 10.48828125 35 12 C32.18872957 12.21714241 29.6116655 12.28284276 26.8125 12.1875 C25.68811523 12.16719727 25.68811523 12.16719727 24.54101562 12.14648438 C22.69370233 12.11118539 20.84675934 12.05737917 19 12 C19 11.34 19 10.68 19 10 C17.700625 9.9175 16.40125 9.835 15.0625 9.75 C10.10617471 9.18446051 5.0359551 8.06300164 1 5 C0.25 2.359375 0.25 2.359375 0 0 Z " fill="#FEEDD4" transform="translate(1000,477)"/>
<path d="M0 0 C0.71542969 -0.01224609 1.43085937 -0.02449219 2.16796875 -0.03710938 C5.95320209 -0.04772218 7.64867012 0.03661341 10.875 2.1875 C3.285 2.1875 -4.305 2.1875 -12.125 2.1875 C-12.455 3.8375 -12.785 5.4875 -13.125 7.1875 C-12.135 7.5175 -11.145 7.8475 -10.125 8.1875 C-11.125 9.1875 -11.125 9.1875 -14.6875 9.25 C-15.821875 9.229375 -16.95625 9.20875 -18.125 9.1875 C-18.125 8.1975 -18.125 7.2075 -18.125 6.1875 C-18.90875 6.6825 -19.6925 7.1775 -20.5 7.6875 C-23.125 9.1875 -23.125 9.1875 -25.125 9.1875 C-25.125 8.5275 -25.125 7.8675 -25.125 7.1875 C-23.23307525 6.20080241 -21.33628022 5.2234398 -19.4375 4.25 C-17.85388672 3.43208984 -17.85388672 3.43208984 -16.23828125 2.59765625 C-10.84756382 0.15593857 -5.85571009 0.00533307 0 0 Z " fill="#EA9C54" transform="translate(1042.125,324.8125)"/>
<path d="M0 0 C0.53496094 0.43957031 1.06992187 0.87914062 1.62109375 1.33203125 C-1.01890625 1.66203125 -3.65890625 1.99203125 -6.37890625 2.33203125 C-6.70890625 1.01203125 -7.03890625 -0.30796875 -7.37890625 -1.66796875 C-18.41161534 -5.0968845 -18.41161534 -5.0968845 -29.37890625 -2.66796875 C-32.05126835 -2.53381403 -34.70141113 -2.62478334 -37.37890625 -2.66796875 C-28.2770723 -11.7698027 -9.01708463 -6.32232371 0 0 Z " fill="#E49D5C" transform="translate(903.37890625,332.66796875)"/>
<path d="M0 0 C14.75037804 -0.57386197 23.54036308 2.18596654 36 10 C34.68 10.33 33.36 10.66 32 11 C31.67 10.34 31.34 9.68 31 9 C29.10466658 8.53476937 29.10466658 8.53476937 26.9375 8.375 C25.638125 8.25125 24.33875 8.1275 23 8 C23 7.34 23 6.68 23 6 C22.01 5.67 21.02 5.34 20 5 C20 4.67 20 4.34 20 4 C18.865625 3.855625 17.73125 3.71125 16.5625 3.5625 C13 3 13 3 12 2 C9.98405418 1.76572222 7.961526 1.58663876 5.9375 1.4375 C4.83277344 1.35371094 3.72804688 1.26992188 2.58984375 1.18359375 C1.73519531 1.12300781 0.88054688 1.06242187 0 1 C0 0.67 0 0.34 0 0 Z M29 11 C31 12 31 12 31 12 Z " fill="#EC9A4E" transform="translate(780,462)"/>
<path d="M0 0 C8.63478196 8.38807391 14.32245155 17.07273871 17 29 C17 30.32 17 31.64 17 33 C16.34 33 15.68 33 15 33 C14.32844651 30.73050898 13.6626037 28.4596039 13 26.1875 C12.62875 24.92292969 12.2575 23.65835937 11.875 22.35546875 C11 19 11 19 11 16 C10.01 16 9.02 16 8 16 C7.67 13.69 7.34 11.38 7 9 C6.34 9 5.68 9 5 9 C2.57800464 6.98167053 1.21484169 4.89693018 0 2 C0 1.34 0 0.68 0 0 Z " fill="#EBA263" transform="translate(1168,463)"/>
<path d="M0 0 C0.33 0 0.66 0 1 0 C2.30638221 5.48680529 1.49348996 9.01302008 -1 14 C-1.66 14 -2.32 14 -3 14 C-3.1546875 14.99 -3.1546875 14.99 -3.3125 16 C-3.87740975 18.46506074 -4.48359802 20.8425452 -5.25 23.25 C-5.46140625 23.93578125 -5.6728125 24.6215625 -5.890625 25.328125 C-7 27 -7 27 -9.609375 27.734375 C-10.39828125 27.82203125 -11.1871875 27.9096875 -12 28 C-11.62488281 27.36835938 -11.24976563 26.73671875 -10.86328125 26.0859375 C-6.5914727 18.6183427 -3.69436219 11.15822816 -1 3 C-0.67 2.01 -0.34 1.02 0 0 Z " fill="#FDEDD4" transform="translate(947,442)"/>
<path d="M0 0 C0.33 0.66 0.66 1.32 1 2 C0.0625 4.125 0.0625 4.125 -1 6 C-1.66 6 -2.32 6 -3 6 C-3 6.99 -3 7.98 -3 9 C-3.99 9 -4.98 9 -6 9 C-5.67 10.32 -5.34 11.64 -5 13 C-5.639375 13.12375 -6.27875 13.2475 -6.9375 13.375 C-7.618125 13.58125 -8.29875 13.7875 -9 14 C-9.33 14.66 -9.66 15.32 -10 16 C-9.01 16 -8.02 16 -7 16 C-7.33 17.65 -7.66 19.3 -8 21 C-8.5775 20.814375 -9.155 20.62875 -9.75 20.4375 C-12.20692525 19.95976454 -13.64397534 20.24270636 -16 21 C-14.25 17.125 -14.25 17.125 -12 16 C-11.46375 15.01 -10.9275 14.02 -10.375 13 C-7.67613343 8.04521062 -3.83023764 4.09984175 0 0 Z " fill="#EDA25C" transform="translate(883,584)"/>
<path d="M0 0 C-1.30324219 0.59748047 -1.30324219 0.59748047 -2.6328125 1.20703125 C-3.78523437 1.73683594 -4.93765625 2.26664063 -6.125 2.8125 C-7.26195312 3.33457031 -8.39890625 3.85664062 -9.5703125 4.39453125 C-10.70210937 4.92433594 -11.83390625 5.45414063 -13 6 C-13.99257813 6.4640625 -14.98515625 6.928125 -16.0078125 7.40625 C-20.09432017 9.5828755 -23.74746976 12.24272147 -27.49609375 14.94726562 C-31.79699046 18 -31.79699046 18 -34 18 C-34 17.01 -34 16.02 -34 15 C-33.01 15 -32.02 15 -31 15 C-31 14.34 -31 13.68 -31 13 C-29.68 13 -28.36 13 -27 13 C-27 12.34 -27 11.68 -27 11 C-25.00572995 9.53353676 -23.0423352 8.22622166 -20.9375 6.9375 C-20.09541992 6.39125977 -20.09541992 6.39125977 -19.23632812 5.83398438 C-15.05226654 3.24703887 -11.7952471 2.39705868 -7 2 C-7 1.34 -7 0.68 -7 0 C-3.98968256 -0.93423645 -3.13349732 -1.04449911 0 0 Z " fill="#FEEFD6" transform="translate(930,554)"/>
<path d="M0 0 C0.33 0 0.66 0 1 0 C1.08845016 3.14565046 1.14086835 6.29097375 1.1875 9.4375 C1.21263672 10.31599609 1.23777344 11.19449219 1.26367188 12.09960938 C1.35425478 20.2822652 -0.3688478 27.16353723 -5 34 C-5.495 32.515 -5.495 32.515 -6 31 C-5.34 31 -4.68 31 -4 31 C-2.99083377 24.39536742 -2.36736265 17.77025853 -1.75 11.11914062 C-1.6675 10.26126953 -1.585 9.40339844 -1.5 8.51953125 C-1.4278125 7.74714111 -1.355625 6.97475098 -1.28125 6.17895508 C-1.00737858 4.05716475 -0.56279952 2.06213263 0 0 Z " fill="#E99D5A" transform="translate(1118,700)"/>
<path d="M0 0 C33.53322765 -1.0710859 33.53322765 -1.0710859 47 5 C47.66 5.66 48.32 6.32 49 7 C43.72617137 7.57014364 39.84569903 5.9625561 35.07421875 3.97265625 C27.35502843 1.53037113 18.96564315 1.74646955 10.9375 1.4375 C9.35291992 1.37272461 9.35291992 1.37272461 7.73632812 1.30664062 C5.15765121 1.20162663 2.57889565 1.09947123 0 1 C0 0.67 0 0.34 0 0 Z " fill="#E69B58" transform="translate(956,547)"/>
<path d="M0 0 C0.99 0.33 1.98 0.66 3 1 C2.443125 1.63164062 1.88625 2.26328125 1.3125 2.9140625 C-4.85973091 10.14975211 -9.52228863 17.64241883 -14 26 C-14.33 26 -14.66 26 -15 26 C-15.50427154 21.76411907 -15.26281885 20.34581428 -12.625 16.875 C-11.75875 15.92625 -10.8925 14.9775 -10 14 C-8.72147713 11.78412652 -8.72147713 11.78412652 -8 10 C-7.34 10 -6.68 10 -6 10 C-6 8.68 -6 7.36 -6 6 C-5.01 6 -4.02 6 -3 6 C-2.87625 5.38125 -2.7525 4.7625 -2.625 4.125 C-2 2 -2 2 0 0 Z " fill="#FEF0D8" transform="translate(1001,342)"/>
<path d="M0 0 C3.53191322 3.43153914 6.7137505 6.97375062 9.8125 10.8125 C10.60269531 11.78832031 11.39289063 12.76414062 12.20703125 13.76953125 C13.09455078 14.87361328 13.09455078 14.87361328 14 16 C13.34 16.33 12.68 16.66 12 17 C11.67 17.66 11.34 18.32 11 19 C10.8453125 18.0409375 10.8453125 18.0409375 10.6875 17.0625 C10.460625 16.381875 10.23375 15.70125 10 15 C9.01 14.67 8.02 14.34 7 14 C7 13.34 7 12.68 7 12 C5.68 11.67 4.36 11.34 3 11 C2.67 9.02 2.34 7.04 2 5 C1.34 5 0.68 5 0 5 C0 3.35 0 1.7 0 0 Z " fill="#F1994D" transform="translate(1056,592)"/>
<path d="M0 0 C2.33294775 -0.04241723 4.66702567 -0.04092937 7 0 C7.33 0.33 7.66 0.66 8 1 C10.0708472 1.1584265 12.14678029 1.25124422 14.22265625 1.31640625 C16.11274414 1.37924805 16.11274414 1.37924805 18.04101562 1.44335938 C19.38150736 1.48317596 20.7220022 1.52288814 22.0625 1.5625 C23.40691523 1.60568042 24.7513166 1.64929456 26.09570312 1.69335938 C29.3970234 1.79985358 32.69842236 1.9018646 36 2 C36 2.33 36 2.66 36 3 C24.32712086 4.93766668 11.04929971 5.77193407 0 1 C0 0.67 0 0.34 0 0 Z " fill="#E89E5C" transform="translate(1054,747)"/>
<path d="M0 0 C-10.35088533 4.93583884 -18.54562171 6.31429697 -30 6 C-29.34 5.01 -28.68 4.02 -28 3 C-24.875 2.84765625 -24.875 2.84765625 -21 3.0625 C-14.95050066 3.28373469 -10.38344021 2.52020704 -4.953125 -0.22265625 C-3 -1 -3 -1 0 0 Z " fill="#EF974C" transform="translate(1139,593)"/>
<path d="M0 0 C0.33 0 0.66 0 1 0 C0.15877765 8.41222348 -1.32373701 16.97121104 -4 25 C-4.08021999 26.40824893 -4.10765977 27.81997231 -4.09765625 29.23046875 C-4.09443359 30.03291016 -4.09121094 30.83535156 -4.08789062 31.66210938 C-4.07951172 32.49548828 -4.07113281 33.32886719 -4.0625 34.1875 C-4.05798828 35.03248047 -4.05347656 35.87746094 -4.04882812 36.74804688 C-4.03705403 38.83206155 -4.0191189 40.91603977 -4 43 C-4.33 43 -4.66 43 -5 43 C-8.27966336 28.574814 -4.81036499 13.69437239 0 0 Z " fill="#E9A05E" transform="translate(832,674)"/>
<path d="M0 0 C13.53 0 27.06 0 41 0 C41 0.33 41 0.66 41 1 C40.01942627 1.029729 40.01942627 1.029729 39.01904297 1.06005859 C22.29383532 1.55493453 22.29383532 1.55493453 5.70703125 3.59765625 C3.09222493 3.98629269 0.63873559 4.07236021 -2 4 C-1.34 2.68 -0.68 1.36 0 0 Z " fill="#EAA063" transform="translate(951,724)"/>
<path d="M0 0 C0.88336837 2.4667645 1.1312406 3.63859372 0.22265625 6.140625 C-0.16019531 6.83671875 -0.54304687 7.5328125 -0.9375 8.25 C-1.31777344 8.95640625 -1.69804688 9.6628125 -2.08984375 10.390625 C-2.39019531 10.92171875 -2.69054687 11.4528125 -3 12 C-3.66 12 -4.32 12 -5 12 C-4.938125 12.721875 -4.87625 13.44375 -4.8125 14.1875 C-5.03890323 17.58354843 -6.1610921 19.17091092 -8 22 C-8.69822617 23.65369357 -9.37498605 25.31727014 -10 27 C-11.50154168 22.41837283 -9.75360833 19.36686445 -7.8125 15.1875 C-7.50763672 14.50107422 -7.20277344 13.81464844 -6.88867188 13.10742188 C-4.84298688 8.57432115 -2.52528111 4.28345909 0 0 Z " fill="#E79F5B" transform="translate(992,357)"/>
<path d="M0 0 C0.33 0 0.66 0 1 0 C1.23046875 2.30859375 1.23046875 2.30859375 1 5 C-0.57421875 6.66015625 -0.57421875 6.66015625 -2.6875 8.0625 C-5.12593742 9.71502989 -7.19143394 11.18626005 -9.3125 13.25 C-13.49648436 15.97445493 -18.11197838 16.34940518 -23 17 C-21.5270792 14.0541584 -19.48881225 13.93144179 -16.4375 12.8125 C-9.42070325 9.9940727 -4.21261529 6.31892294 0 0 Z " fill="#FDEBCE" transform="translate(1113,733)"/>
<path d="M0 0 C0.66 0 1.32 0 2 0 C2 0.66 2 1.32 2 2 C2.66 2 3.32 2 4 2 C4 2.66 4 3.32 4 4 C4.66 4 5.32 4 6 4 C6.26554687 4.61488281 6.53109375 5.22976563 6.8046875 5.86328125 C7.15789062 6.67152344 7.51109375 7.47976563 7.875 8.3125 C8.22304687 9.11300781 8.57109375 9.91351563 8.9296875 10.73828125 C10.02571894 13.1961834 10.02571894 13.1961834 12 16 C11.96856707 18.73990408 11.44521663 21.28417854 11 24 C9.0132506 21.0198759 8.09147427 18.57703925 7 15.1875 C6.67 14.17042969 6.34 13.15335937 6 12.10546875 C5.67 11.08066406 5.34 10.05585938 5 9 C4.33541053 6.9993088 3.66935544 4.99910173 3 3 C2.34 3 1.68 3 1 3 C0.67 2.01 0.34 1.02 0 0 Z " fill="#FEEED3" transform="translate(1080,347)"/>
<path d="M0 0 C5.53850693 -0.30210038 9.6346299 0.29657625 14.83203125 2.2109375 C17.23629922 3.12215359 17.23629922 3.12215359 20.75 4 C23.89083115 4.96640958 26.2770024 6.18466827 29 8 C27 9 27 9 24.19921875 8.109375 C23.04035156 7.66078125 21.88148438 7.2121875 20.6875 6.75 C13.91262836 4.19855175 7.09786738 2.45022872 0 1 C0 0.67 0 0.34 0 0 Z " fill="#EBA25F" transform="translate(992,725)"/>
<path d="M0 0 C1.32 0.33 2.64 0.66 4 1 C-0.49662562 7.01496674 -4.60124347 12.00077717 -11 16 C-11.33 15.01 -11.66 14.02 -12 13 C-11.67 12.34 -11.34 11.68 -11 11 C-9.68 11 -8.36 11 -7 11 C-7 10.34 -7 9.68 -7 9 C-6.01 9 -5.02 9 -4 9 C-3.34 6.69 -2.68 4.38 -2 2 C-1.34 2 -0.68 2 0 2 C0 1.34 0 0.68 0 0 Z " fill="#E99D5B" transform="translate(934,465)"/>
<path d="M0 0 C-1.41152344 -0.03480469 -1.41152344 -0.03480469 -2.8515625 -0.0703125 C-4.09679688 -0.08835937 -5.34203125 -0.10640625 -6.625 -0.125 C-8.46964844 -0.15980469 -8.46964844 -0.15980469 -10.3515625 -0.1953125 C-13.96246113 -0.00200958 -16.62550195 0.7729098 -20 2 C-23.375 2.125 -23.375 2.125 -26 2 C-26.33 2.99 -26.66 3.98 -27 5 C-29.97 4.505 -29.97 4.505 -33 4 C-26.3534358 -2.6465642 -7.75726722 -5.17151148 0 0 Z " fill="#E9A060" transform="translate(1153,455)"/>
<path d="M0 0 C0.86963379 0.16298584 1.73926758 0.32597168 2.63525391 0.49389648 C5.77223578 0.96574117 8.66904654 1.11468255 11.8359375 1.09765625 C13.43115234 1.09282227 13.43115234 1.09282227 15.05859375 1.08789062 C16.15300781 1.07951172 17.24742188 1.07113281 18.375 1.0625 C19.49261719 1.05798828 20.61023437 1.05347656 21.76171875 1.04882812 C24.50786804 1.03709244 27.25390586 1.02067363 30 1 C29.01 2.485 29.01 2.485 28 4 C25.95629883 4.37231445 25.95629883 4.37231445 23.45703125 4.36328125 C22.54759766 4.36263672 21.63816406 4.36199219 20.70117188 4.36132812 C19.74791016 4.34521484 18.79464844 4.32910156 17.8125 4.3125 C16.87857422 4.31572266 15.94464844 4.31894531 14.98242188 4.32226562 C9.60972067 4.2806754 5.07971527 3.76349728 0 2 C0 1.34 0 0.68 0 0 Z " fill="#FEF1D8" transform="translate(1058,749)"/>
<path d="M0 0 C0.33 0 0.66 0 1 0 C1.02685095 2.47923801 1.04676547 4.9581884 1.0625 7.4375 C1.07087891 8.14455078 1.07925781 8.85160156 1.08789062 9.58007812 C1.09653588 11.38693559 1.05220011 13.19387603 1 15 C0.67 15.33 0.34 15.66 0 16 C-0.08700342 17.63472882 -0.10701063 19.27314055 -0.09765625 20.91015625 C-0.09443359 21.89951172 -0.09121094 22.88886719 -0.08789062 23.90820312 C-0.07951172 24.94912109 -0.07113281 25.99003906 -0.0625 27.0625 C-0.05798828 28.10728516 -0.05347656 29.15207031 -0.04882812 30.22851562 C-0.03699913 32.8190666 -0.02051689 35.40950559 0 38 C-1.63709637 35.11516633 -2.25536592 33.03657977 -2.265625 29.7265625 C-2.26949219 28.90768555 -2.27335937 28.08880859 -2.27734375 27.24511719 C-2.26380859 25.94815918 -2.26380859 25.94815918 -2.25 24.625 C-2.24613281 23.73973633 -2.24226563 22.85447266 -2.23828125 21.94238281 C-2.14132739 14.49578767 -1.3590714 7.32927792 0 0 Z " fill="#ECA461" transform="translate(1072,522)"/>
<path d="M0 0 C4.32233042 1.34192419 6.08549511 2.93463645 8.5625 6.6875 C9.44615234 8.02554687 9.44615234 8.02554687 10.34765625 9.390625 C10.89292969 10.25171875 11.43820312 11.1128125 12 12 C12.45246094 12.69609375 12.90492188 13.3921875 13.37109375 14.109375 C14.5 15.9375 14.5 15.9375 16 19 C15.67 19.99 15.34 20.98 15 22 C14.67128906 21.40574219 14.34257813 20.81148438 14.00390625 20.19921875 C10.44912805 14.00484916 6.38141739 8.59232772 1.7578125 3.15234375 C0 1 0 1 0 0 Z " fill="#FEF0D8" transform="translate(831,484)"/>
<path d="M0 0 C0.33 0 0.66 0 1 0 C0.35224238 9.71636432 -1.93562832 19.20295069 -8 27 C-8.66 25.68 -9.32 24.36 -10 23 C-9.01 22.67 -8.02 22.34 -7 22 C-5.97299556 19.67108904 -5.97299556 19.67108904 -5.3125 16.9375 C-5.06113281 16.01839844 -4.80976562 15.09929688 -4.55078125 14.15234375 C-4.27814453 13.08693359 -4.27814453 13.08693359 -4 12 C-3.34 12 -2.68 12 -2 12 C-2.061875 10.4221875 -2.061875 10.4221875 -2.125 8.8125 C-2.00852125 5.25989827 -1.52791932 3.15133359 0 0 Z " fill="#E99B55" transform="translate(857,563)"/>
<path d="M0 0 C5.875 0.875 5.875 0.875 7 2 C8.68608966 2.07205511 10.37500659 2.08386068 12.0625 2.0625 C12.98160156 2.05347656 13.90070313 2.04445313 14.84765625 2.03515625 C15.55792969 2.02355469 16.26820312 2.01195312 17 2 C16.67 2.99 16.34 3.98 16 5 C17.98 5.66 19.96 6.32 22 7 C22 7.66 22 8.32 22 9 C14.21898625 7.44379725 7.20559099 4.21822743 0 1 C0 0.67 0 0.34 0 0 Z " fill="#EA9F56" transform="translate(1032,738)"/>
<path d="M0 0 C1.95775078 2.93662616 2.56073149 4.5737056 3 8 C2.67 8.66 2.34 9.32 2 10 C2.99 10.33 3.98 10.66 5 11 C4.67 11.66 4.34 12.32 4 13 C0.51127585 11.83709195 -0.09976864 10.86032391 -2.1875 7.9375 C-2.71730469 7.20402344 -3.24710938 6.47054688 -3.79296875 5.71484375 C-4.19128906 5.14894531 -4.58960938 4.58304687 -5 4 C-4.360625 3.71125 -3.72125 3.4225 -3.0625 3.125 C-0.84793921 2.17176549 -0.84793921 2.17176549 0 0 Z " fill="#F1994B" transform="translate(860,456)"/>
<path d="M0 0 C0.99 0 1.98 0 3 0 C2.979375 1.11375 2.95875 2.2275 2.9375 3.375 C2.73619282 6.83215921 2.73619282 6.83215921 4 9 C4.04022391 11.3329866 4.04320247 13.66706666 4 16 C0.57068046 12.2440786 -0.56429083 7.76533255 -2 3 C-1.34 3 -0.68 3 0 3 C0 2.01 0 1.02 0 0 Z " fill="#EE9A4D" transform="translate(1074,560)"/>
<path d="M0 0 C0.99 0.99 1.98 1.98 3 3 C2.67 3.99 2.34 4.98 2 6 C1.34 6 0.68 6 0 6 C0 7.32 0 8.64 0 10 C0.99 10.33 1.98 10.66 3 11 C2.01 11.33 1.02 11.66 0 12 C-0.83905565 10.87926138 -1.67107831 9.75325453 -2.5 8.625 C-2.9640625 7.99851562 -3.428125 7.37203125 -3.90625 6.7265625 C-5 5 -5 5 -5 3 C-4.01 3 -3.02 3 -2 3 C-1.34 2.01 -0.68 1.02 0 0 Z " fill="#EE9748" transform="translate(1083,573)"/>
<path d="M0 0 C0.70125 0.144375 1.4025 0.28875 2.125 0.4375 C8.02062599 1.6082486 8.02062599 1.6082486 14 2 C14.33 3.32 14.66 4.64 15 6 C17.97 6.495 17.97 6.495 21 7 C17.90010028 8.00719851 16.18309855 8.00792373 13.14453125 6.85546875 C12.44005859 6.59056641 11.73558594 6.32566406 11.00976562 6.05273438 C9.92211914 5.62444336 9.92211914 5.62444336 8.8125 5.1875 C7.70745117 4.77661133 7.70745117 4.77661133 6.58007812 4.35742188 C1.13410643 2.26821286 1.13410643 2.26821286 0 0 Z " fill="#F09F59" transform="translate(791,598)"/>
<path d="M0 0 C1.32 0 2.64 0 4 0 C8 6.75 8 6.75 8 9 C8.66 9 9.32 9 10 9 C11.29243536 13.1196377 12.26252625 16.66831683 12 21 C9.49478573 17.24217859 7.61354168 13.23917342 5.65429688 9.18164062 C4.02613621 5.86527867 2.3448891 2.86119495 0 0 Z " fill="#FEF1D9" transform="translate(1172,467)"/>
<path d="M0 0 C0 4.1059389 -1.62998627 5.02486875 -4.4375 7.9375 C-8.27649426 11.91551997 -8.27649426 11.91551997 -10 17 C-10.66 17.33 -11.32 17.66 -12 18 C-13.13350534 20.01669827 -13.13350534 20.01669827 -14 22 C-15 19 -15 19 -13.84765625 16.58203125 C-9.80665634 10.3127338 -5.5299106 5.01282805 0 0 Z " fill="#E4A162" transform="translate(855,336)"/>
<path d="M0 0 C2.43194894 2.43194894 3.33893831 4.71418779 4.6875 7.875 C5.14511719 8.92429687 5.60273437 9.97359375 6.07421875 11.0546875 C7.00062999 14.00200428 7.12150295 15.18604713 6 18 C5.71125 17.360625 5.4225 16.72125 5.125 16.0625 C4.17176549 13.84793921 4.17176549 13.84793921 2 13 C0.66649933 8.55499776 -0.29175731 4.6681169 0 0 Z " fill="#E89F5B" transform="translate(1082,350)"/>
<path d="M0 0 C2.9719385 1.12451727 5.33440687 2.22293791 8 4 C8 3.34 8 2.68 8 2 C8.66 2 9.32 2 10 2 C9.67 3.32 9.34 4.64 9 6 C9.7425 6.12375 10.485 6.2475 11.25 6.375 C13.80141485 6.95486701 15.7267573 7.73708739 18 9 C18 9.66 18 10.32 18 11 C10.96790899 9.06617497 4.86086845 5.46847701 0 0 Z " fill="#E99E5A" transform="translate(840,738)"/>
<path d="M0 0 C2.475 0.495 2.475 0.495 5 1 C5 2.65 5 4.3 5 6 C5.99 6.33 6.98 6.66 8 7 C9.75 10.375 9.75 10.375 11 14 C10.67 14.99 10.34 15.98 10 17 C8.32972219 14.35642999 6.6643902 11.70978008 5 9.0625 C4.52304688 8.30775391 4.04609375 7.55300781 3.5546875 6.77539062 C3.10351562 6.05673828 2.65234375 5.33808594 2.1875 4.59765625 C1.76855469 3.93258057 1.34960938 3.26750488 0.91796875 2.58227539 C0 1 0 1 0 0 Z " fill="#FEF1D9" transform="translate(1088,634)"/>
<path d="M0 0 C1.07174763 3.65188082 0.76411467 6.26432828 0 10 C-0.66 10 -1.32 10 -2 10 C-2.103125 11.093125 -2.20625 12.18625 -2.3125 13.3125 C-2.97307727 16.85559629 -3.2027092 17.93243723 -6 20 C-5.36757331 15.27497299 -4.08186437 11.09429803 -2.4375 6.625 C-2.20353516 5.98433594 -1.96957031 5.34367187 -1.72851562 4.68359375 C-1.15700381 3.1206839 -0.57915771 1.56009273 0 0 Z " fill="#E9A15D" transform="translate(1079,502)"/>
<path d="M0 0 C0.99 0.33 1.98 0.66 3 1 C1.75803878 2.15454162 0.50607155 3.29832562 -0.75 4.4375 C-1.79414062 5.39462891 -1.79414062 5.39462891 -2.859375 6.37109375 C-4.98792725 7.99081325 -6.39023405 8.58267256 -9 9 C-8.67 7.35 -8.34 5.7 -8 4 C-6.865625 3.71125 -5.73125 3.4225 -4.5625 3.125 C-3.386875 2.75375 -2.21125 2.3825 -1 2 C-0.67 1.34 -0.34 0.68 0 0 Z " fill="#EB9C57" transform="translate(1108,736)"/>
<path d="M0 0 C0.33 0 0.66 0 1 0 C2.10228696 4.40914783 2.07654536 8.48382401 2 13 C1.34 12.34 0.68 11.68 0 11 C-0.99 11.66 -1.98 12.32 -3 13 C-3.93065133 10.39417629 -4.14917407 9.35801776 -3.0625 6.75 C-2.5365625 5.88375 -2.5365625 5.88375 -2 5 C-1.34 5 -0.68 5 0 5 C0 3.35 0 1.7 0 0 Z " fill="#F1984A" transform="translate(1116,691)"/>
<path d="M0 0 C-0.33 1.32 -0.66 2.64 -1 4 C-1.69867187 3.98839844 -2.39734375 3.97679687 -3.1171875 3.96484375 C-4.02726563 3.95582031 -4.93734375 3.94679688 -5.875 3.9375 C-6.77992188 3.92589844 -7.68484375 3.91429687 -8.6171875 3.90234375 C-11.0168585 3.83750743 -11.0168585 3.83750743 -13 5 C-13.66 4.34 -14.32 3.68 -15 3 C-13.25531628 2.29911844 -11.50398839 1.61475991 -9.75 0.9375 C-8.77546875 0.55464844 -7.8009375 0.17179688 -6.796875 -0.22265625 C-3.95992605 -1.01113787 -2.70590448 -1.02437812 0 0 Z " fill="#EB9F58" transform="translate(940,552)"/>
<path d="M0 0 C0.66 0.33 1.32 0.66 2 1 C-0.05510619 6.0235929 -2.13349726 8.51709044 -7 11 C-8.32 10.67 -9.64 10.34 -11 10 C-5.555 5.05 -5.555 5.05 0 0 Z " fill="#EBA15D" transform="translate(1014,333)"/>
<path d="M0 0 C6.93 0 13.86 0 21 0 C21 0.66 21 1.32 21 2 C21.99 2.33 22.98 2.66 24 3 C23.01 3.495 23.01 3.495 22 4 C21.24460937 3.69449219 20.48921875 3.38898438 19.7109375 3.07421875 C13.34673586 0.55238092 5.61861496 1.82335734 -1 3 C-0.67 2.01 -0.34 1.02 0 0 Z " fill="#FEF2DB" transform="translate(871,325)"/>
<path d="M0 0 C2.31 0 4.62 0 7 0 C7 0.99 7 1.98 7 3 C7.598125 3.12375 8.19625 3.2475 8.8125 3.375 C11 4 11 4 14 6 C13.67 6.99 13.34 7.98 13 9 C10.83061859 7.69181533 8.6644848 6.37874076 6.5 5.0625 C5.87996094 4.68931641 5.25992188 4.31613281 4.62109375 3.93164062 C3.06370003 2.9818016 1.5296725 1.99386689 0 1 C0 0.67 0 0.34 0 0 Z " fill="#FEEDDA" transform="translate(806,466)"/>
<path d="M0 0 C0.33 0 0.66 0 1 0 C1.50610724 6.07328688 0.04157942 9.77228537 -3 15 C-3.66 15 -4.32 15 -5 15 C-3.07692308 3.07692308 -3.07692308 3.07692308 0 0 Z " fill="#FC932E" transform="translate(989,369)"/>
<path d="M0 0 C0.99 0.33 1.98 0.66 3 1 C2.61328125 1.42410156 2.2265625 1.84820312 1.828125 2.28515625 C-1.7394097 6.30304806 -4.48173429 10.25403771 -7 15 C-8.33566756 11.96439191 -7.91578966 10.73801229 -6.875 7.5 C-4.94579078 3.89880945 -3.48546737 2.09128042 0 0 Z " fill="#FEF4DD" transform="translate(848,340)"/>
<path d="M0 0 C2.09715785 3.14573677 2.52004559 5.01456251 3.125 8.6875 C3.29257812 9.68136719 3.46015625 10.67523437 3.6328125 11.69921875 C3.75398437 12.45847656 3.87515625 13.21773437 4 14 C2.02 14.99 2.02 14.99 0 16 C-1.13055826 12.60832521 -0.7231605 10.45510019 0 7 C0.03824623 4.66698014 0.04574284 2.33288492 0 0 Z " fill="#FDF5E5" transform="translate(745,538)"/>
<path d="M0 0 C-2 2 -2 2 -4.0625 3 C-6.16865601 3.84589942 -6.16865601 3.84589942 -7 6 C-7.66 6 -8.32 6 -9 6 C-9 6.99 -9 7.98 -9 9 C-8.01 9.33 -7.02 9.66 -6 10 C-7.8125 10.6875 -7.8125 10.6875 -10 11 C-11.75 9.5625 -11.75 9.5625 -13 8 C-6.53389831 -0.54449153 -6.53389831 -0.54449153 0 0 Z " fill="#ED9B54" transform="translate(766,469)"/>
<path d="M0 0 C0.99 0.99 1.98 1.98 3 3 C1.43551329 8.6143991 -0.16395187 13.86810338 -3 19 C-4.60080151 14.99799622 -3.29279692 11.95443764 -2 8 C-1.34 8 -0.68 8 0 8 C-0.185625 7.4225 -0.37125 6.845 -0.5625 6.25 C-1.04023546 3.79307475 -0.75729364 2.35602466 0 0 Z " fill="#EC9C57" transform="translate(1084,428)"/>
<path d="M0 0 C0 0.99 0 1.98 0 3 C1.98 3 3.96 3 6 3 C2.06830336 5.62113109 0.39689982 4.88205685 -4.1875 4.125 C-5.45980469 3.92132812 -6.73210937 3.71765625 -8.04296875 3.5078125 C-9.01878906 3.34023438 -9.99460937 3.17265625 -11 3 C-7.88866897 -0.11133103 -4.26881718 0 0 0 Z " fill="#F29646" transform="translate(1091,743)"/>
<path d="M0 0 C2.60332156 3.16063087 4.14038576 6.3431652 5.6875 10.125 C6.34298828 11.70667969 6.34298828 11.70667969 7.01171875 13.3203125 C8 16 8 16 8 18 C7.34 18 6.68 18 6 18 C3 11.5 3 11.5 3 7 C2.01 6.67 1.02 6.34 0 6 C0 4.02 0 2.04 0 0 Z " fill="#E8A262" transform="translate(1106,666)"/>
<path d="M0 0 C0 0.99 0 1.98 0 3 C-0.63808594 3.18175781 -1.27617188 3.36351562 -1.93359375 3.55078125 C-2.75988281 3.80214844 -3.58617187 4.05351562 -4.4375 4.3125 C-5.67306641 4.67794922 -5.67306641 4.67794922 -6.93359375 5.05078125 C-7.61550781 5.36402344 -8.29742188 5.67726563 -9 6 C-9.33 6.99 -9.66 7.98 -10 9 C-11.32 8.67 -12.64 8.34 -14 8 C-10.25 5 -10.25 5 -8 5 C-8 4.34 -8 3.68 -8 3 C-2.25 0 -2.25 0 0 0 Z " fill="#E7A163" transform="translate(1120,459)"/>
<path d="M0 0 C0 0.33 0 0.66 0 1 C-0.84304688 1.13277344 -1.68609375 1.26554687 -2.5546875 1.40234375 C-3.65039062 1.57894531 -4.74609375 1.75554687 -5.875 1.9375 C-6.96554687 2.11152344 -8.05609375 2.28554688 -9.1796875 2.46484375 C-11.93821546 2.85551159 -11.93821546 2.85551159 -14 4 C-16.6723621 4.13415472 -19.32250488 4.04318541 -22 4 C-16.66248577 -1.33751423 -7.00560106 -0.23570247 0 0 Z " fill="#EBAB6F" transform="translate(888,326)"/>
<path d="M0 0 C0.33 0.99 0.66 1.98 1 3 C0.05988318 4.70116376 -0.94895617 6.36504293 -2 8 C-2.69822617 9.65369357 -3.37498605 11.31727014 -4 13 C-4.66 13 -5.32 13 -6 13 C-6 13.66 -6 14.32 -6 15 C-6.99 15.33 -7.98 15.66 -9 16 C-7.56691865 12.04093183 -5.66858051 8.71281819 -3.375 5.1875 C-2.74335937 4.21167969 -2.11171875 3.23585938 -1.4609375 2.23046875 C-0.73777344 1.12638672 -0.73777344 1.12638672 0 0 Z " fill="#EBA262" transform="translate(863,610)"/>
<path d="M0 0 C0.99 0.99 1.98 1.98 3 3 C0.36 7.29 -2.28 11.58 -5 16 C-5.33 15.01 -5.66 14.02 -6 13 C-5.67 12.34 -5.34 11.68 -5 11 C-4.34 11 -3.68 11 -3 11 C-3 9.68 -3 8.36 -3 7 C-2.34 7 -1.68 7 -1 7 C-1.020625 6.030625 -1.04125 5.06125 -1.0625 4.0625 C-1 1 -1 1 0 0 Z " fill="#FEF4DE" transform="translate(860,608)"/>
<path d="M0 0 C0.5625 1.9375 0.5625 1.9375 1 4 C0.67 4.33 0.34 4.66 0 5 C-0.14636054 8.36629251 -0.07193479 10.78419562 1 14 C-2 14 -2 14 -3.6875 12.5 C-4.120625 12.005 -4.55375 11.51 -5 11 C-3.55049545 7.2089881 -1.84827434 3.6125362 0 0 Z " fill="#EB9A54" transform="translate(853,626)"/>
<path d="M0 0 C3.01693943 2.85674795 5.40554531 5.82348931 7.75 9.25 C8.67039062 10.58804688 8.67039062 10.58804688 9.609375 11.953125 C10.06828125 12.62859375 10.5271875 13.3040625 11 14 C10.67 14.66 10.34 15.32 10 16 C9.5978125 15.0409375 9.5978125 15.0409375 9.1875 14.0625 C8.11332248 11.66868314 8.11332248 11.66868314 5 11 C4.30062468 9.68352881 3.63270867 8.34977849 3 7 C2.34 6.67 1.68 6.34 1 6 C0.375 2.9375 0.375 2.9375 0 0 Z " fill="#E89D5C" transform="translate(1080,624)"/>
<path d="M0 0 C4.66132863 3.57729872 7.73911534 7.10867301 11 12 C9.35 11.67 7.7 11.34 6 11 C5.67 9.35 5.34 7.7 5 6 C3.68 6 2.36 6 1 6 C0.67 4.02 0.34 2.04 0 0 Z " fill="#FDE9C9" transform="translate(762,574)"/>
<path d="M0 0 C0.66 0 1.32 0 2 0 C1.48594831 4.96916636 0.76615118 9.29026351 -1 14 C-1.33 14 -1.66 14 -2 14 C-2.05410687 12.22950311 -2.09284119 10.45853151 -2.125 8.6875 C-2.14820313 7.70136719 -2.17140625 6.71523438 -2.1953125 5.69921875 C-2 3 -2 3 0 0 Z " fill="#EB9C54" transform="translate(1181,530)"/>
<path d="M0 0 C2.97 0.495 2.97 0.495 6 1 C6 1.66 6 2.32 6 3 C6.7425 3.2475 7.485 3.495 8.25 3.75 C11.20124062 5.09147301 12.84814974 6.60905526 15 9 C11.79638418 8.34172278 9.23428792 7.20286791 6.375 5.625 C5.59898438 5.20476562 4.82296875 4.78453125 4.0234375 4.3515625 C2 3 2 3 0 0 Z " fill="#E89E5A" transform="translate(1056,328)"/>
<path d="M0 0 C5.51561369 2.88037604 10.36290866 5.83850777 15 10 C14.01 10.495 14.01 10.495 13 11 C10.375 9.6875 10.375 9.6875 8 8 C8 7.34 8 6.68 8 6 C5.69 5.34 3.38 4.68 1 4 C0.67 2.68 0.34 1.36 0 0 Z " fill="#E69C5A" transform="translate(1018,560)"/>
<path d="M0 0 C3.3 0.33 6.6 0.66 10 1 C6.61885051 2.69057475 4.3700175 3.45815467 0.75 4.125 C-0.58804688 4.37636719 -0.58804688 4.37636719 -1.953125 4.6328125 C-2.96632813 4.81457031 -2.96632813 4.81457031 -4 5 C-4.33 4.01 -4.66 3.02 -5 2 C-2.525 2.495 -2.525 2.495 0 3 C0 2.01 0 1.02 0 0 Z " fill="#FEF4E1" transform="translate(934,548)"/>
<path d="M0 0 C1.32 0 2.64 0 4 0 C4 2 4 2 2.3203125 3.69140625 C1.59585937 4.30886719 0.87140625 4.92632812 0.125 5.5625 C-0.59429688 6.18253906 -1.31359375 6.80257813 -2.0546875 7.44140625 C-4 9 -4 9 -6 10 C-5.67 8.35 -5.34 6.7 -5 5 C-4.01 4.67 -3.02 4.34 -2 4 C-2 3.34 -2 2.68 -2 2 C-1.34 2 -0.68 2 0 2 C0 1.34 0 0.68 0 0 Z " fill="#EE994D" transform="translate(1063,465)"/>
<path d="M0 0 C0.8971875 0.309375 0.8971875 0.309375 1.8125 0.625 C1.4825 2.275 1.1525 3.925 0.8125 5.625 C0.235 5.439375 -0.3425 5.25375 -0.9375 5.0625 C-3.39442525 4.58476454 -4.83147534 4.86770636 -7.1875 5.625 C-5.69046729 2.17030914 -4.27938051 -0.73360809 0 0 Z " fill="#F2994D" transform="translate(874.1875,599.375)"/>
<path d="M0 0 C4.63607655 1.19213397 6.49826189 3.52902771 9.1796875 7.24609375 C10 9 10 9 9 12 C7.49707257 10.18992669 5.99772829 8.37687764 4.5 6.5625 C3.6646875 5.55316406 2.829375 4.54382813 1.96875 3.50390625 C0 1 0 1 0 0 Z " fill="#FEF2DC" transform="translate(1056,591)"/>
<path d="M0 0 C1.875 0.25 1.875 0.25 4 1 C4.268125 1.61875 4.53625 2.2375 4.8125 2.875 C6.41288439 5.73884575 8.1774134 6.38957541 11.125 7.75 C12.03507812 8.17796875 12.94515625 8.6059375 13.8828125 9.046875 C14.58148437 9.36140625 15.28015625 9.6759375 16 10 C16 10.66 16 11.32 16 12 C8.63724346 9.32263399 3.86310965 6.79907298 0 0 Z " fill="#E9A060" transform="translate(1084,585)"/>
<path d="M0 0 C0.98995103 2.67286779 1.04574968 3.85219333 0.1875 6.625 C-1 9 -1 9 -3 11 C-3.99 11 -4.98 11 -6 11 C-4.54955729 6.89041233 -2.48889248 3.56741255 0 0 Z " fill="#FEEBD0" transform="translate(1173,557)"/>
<path d="M0 0 C4.07262889 -0.27102027 6.62470093 0.47271499 10.25 2.3125 C11.55710937 2.95638672 11.55710937 2.95638672 12.890625 3.61328125 C15 5 15 5 16 8 C12.34061828 6.56835889 8.76011932 5.01065704 5.1875 3.375 C4.21167969 2.92898438 3.23585938 2.48296875 2.23046875 2.0234375 C1.49441406 1.68570313 0.75835938 1.34796875 0 1 C0 0.67 0 0.34 0 0 Z " fill="#FDEBD0" transform="translate(1003,552)"/>
<path d="M0 0 C0.99 0.33 1.98 0.66 3 1 C2.67 3.31 2.34 5.62 2 8 C2.66 8 3.32 8 4 8 C3.67 8.99 3.34 9.98 3 11 C1.02 8.03 -0.96 5.06 -3 2 C-2.01 1.34 -1.02 0.68 0 0 Z " fill="#ED994F" transform="translate(851,448)"/>
<path d="M0 0 C0.66 0 1.32 0 2 0 C2.20496094 0.98742187 2.40992188 1.97484375 2.62109375 2.9921875 C2.89050781 4.27351563 3.15992188 5.55484375 3.4375 6.875 C3.70433594 8.15117187 3.97117187 9.42734375 4.24609375 10.7421875 C4.8347826 13.86460244 4.8347826 13.86460244 6 16 C5.34 16.66 4.68 17.32 4 18 C3.32451422 15.94037148 2.65995688 13.87715678 2 11.8125 C1.62875 10.66394531 1.2575 9.51539063 0.875 8.33203125 C0.09369447 5.35679188 -0.18363306 3.04716104 0 0 Z " fill="#E89C5A" transform="translate(977,432)"/>
<path d="M0 0 C2.64 0.33 5.28 0.66 8 1 C5.41588269 2.72274487 3.45097344 3.68895522 0.5625 4.6875 C-0.19933594 4.95949219 -0.96117187 5.23148438 -1.74609375 5.51171875 C-4.21829721 6.04729142 -5.62983284 5.80445309 -8 5 C-4.91190305 3.23537317 -3.76687864 3 0 3 C0 2.01 0 1.02 0 0 Z " fill="#EC9F5D" transform="translate(904,740)"/>
<path d="M0 0 C3.63559661 3.43361902 6.36113346 6.7973607 9 11 C8.34 11 7.68 11 7 11 C6.67 11.66 6.34 12.32 6 13 C5.896875 12.360625 5.79375 11.72125 5.6875 11.0625 C5.460625 10.381875 5.23375 9.70125 5 9 C4.01 8.67 3.02 8.34 2 8 C1.26953125 6.15234375 1.26953125 6.15234375 0.8125 3.9375 C0.65394531 3.20402344 0.49539063 2.47054687 0.33203125 1.71484375 C0.22246094 1.14894531 0.11289063 0.58304688 0 0 Z " fill="#EFA25C" transform="translate(1061,598)"/>
<path d="M0 0 C-1.78174788 2.30142435 -3.16304165 3.80034391 -6.046875 4.48828125 C-8.0246611 4.72323102 -10.01271872 4.86751458 -12 5 C-8.98541648 1.5216344 -4.71726343 -2.35863172 0 0 Z " fill="#ECA059" transform="translate(922,559)"/>
<path d="M0 0 C2.72178647 2.37083979 3.88769607 4.6533784 5.1875 8 C5.53167969 8.86625 5.87585938 9.7325 6.23046875 10.625 C7 13 7 13 7 16 C6.34 16 5.68 16 5 16 C3.19695845 10.69905784 1.49276376 5.39691512 0 0 Z " fill="#E7A161" transform="translate(936,368)"/>
<path d="M0 0 C0 1.32 0 2.64 0 4 C-0.99 4 -1.98 4 -3 4 C-3 3.34 -3 2.68 -3 2 C-5.64 2 -8.28 2 -11 2 C-6.56704896 -0.95530069 -5.21113081 -1.01956907 0 0 Z " fill="#FEF5E4" transform="translate(928,738)"/>
<path d="M0 0 C6.27 0 12.54 0 19 0 C19 0.66 19 1.32 19 2 C19.66 2.33 20.32 2.66 21 3 C14.07 2.34 7.14 1.68 0 1 C0 0.67 0 0.34 0 0 Z " fill="#FDE1C3" transform="translate(781,461)"/>
<path d="M0 0 C-1.28913487 0.67154933 -2.58140204 1.33708859 -3.875 2 C-4.59429688 2.37125 -5.31359375 2.7425 -6.0546875 3.125 C-8 4 -8 4 -10 4 C-10 4.66 -10 5.32 -10 6 C-11.65 6.66 -13.3 7.32 -15 8 C-15 7.01 -15 6.02 -15 5 C-13.68 5 -12.36 5 -11 5 C-11 4.01 -11 3.02 -11 2 C-9.73392393 1.46770674 -8.46189588 0.94955456 -7.1875 0.4375 C-6.47980469 0.14746094 -5.77210937 -0.14257812 -5.04296875 -0.44140625 C-3 -1 -3 -1 0 0 Z " fill="#FEF2D8" transform="translate(1122,458)"/>
<path d="M0 0 C2.64 1.98 5.28 3.96 8 6 C7.34 6.66 6.68 7.32 6 8 C5.34 7.01 4.68 6.02 4 5 C2.68 5 1.36 5 0 5 C0 5.99 0 6.98 0 8 C-0.66 8 -1.32 8 -2 8 C-1.47731534 5.23723823 -0.89130413 2.6739124 0 0 Z " fill="#ED9A50" transform="translate(914,340)"/>
<path d="M0 0 C1.53760842 3.07521683 0.36599236 5.34675118 -0.4375 8.625 C-0.72496094 9.81351563 -1.01242187 11.00203125 -1.30859375 12.2265625 C-1.53675781 13.14179687 -1.76492188 14.05703125 -2 15 C-2.33 15 -2.66 15 -3 15 C-3.02705729 13.22925083 -3.04642195 11.45838289 -3.0625 9.6875 C-3.07410156 8.70136719 -3.08570313 7.71523438 -3.09765625 6.69921875 C-3 4 -3 4 -2 1 C-1.34 0.67 -0.68 0.34 0 0 Z " fill="#FEF4DE" transform="translate(830,678)"/>
<path d="M0 0 C4.38309505 4.146171 7.87648117 7.93299833 9 14 C8.01 13.34 7.02 12.68 6 12 C5.87625 11.38125 5.7525 10.7625 5.625 10.125 C5.1381523 7.70738567 5.1381523 7.70738567 2.4375 6 C1.633125 5.34 0.82875 4.68 0 4 C0 2.68 0 1.36 0 0 Z " fill="#E99C5B" transform="translate(927,354)"/>
<path d="M0 0 C3.45101522 4.24740335 6.73279209 8.61105071 10 13 C9.01 13.495 9.01 13.495 8 14 C3.55378876 9.86042401 0.8697403 6.08818211 0 0 Z " fill="#E9A05D" transform="translate(1070,609)"/>
<path d="M0 0 C0.66 0.33 1.32 0.66 2 1 C0.25 4.875 0.25 4.875 -2 6 C-4.3329866 6.04022391 -6.66706666 6.04320247 -9 6 C-6.12050853 3.76039553 -3.23257974 1.70135776 0 0 Z " fill="#FCEBD3" transform="translate(1142,590)"/>
<path d="M0 0 C1.98 0 3.96 0 6 0 C6 0.66 6 1.32 6 2 C5.01 2.66 4.02 3.32 3 4 C3 4.66 3 5.32 3 6 C0.97954558 5.39816251 -1.02111039 4.72693904 -3 4 C-3.33 3.34 -3.66 2.68 -4 2 C-1.525 2.495 -1.525 2.495 1 3 C0.67 2.01 0.34 1.02 0 0 Z " fill="#EF9B50" transform="translate(788,592)"/>
<path d="M0 0 C1.29315061 0.95632999 2.58446853 1.91513851 3.875 2.875 C4.59429688 3.40867187 5.31359375 3.94234375 6.0546875 4.4921875 C8 6 8 6 10 8 C8.68 8.33 7.36 8.66 6 9 C4.99406757 7.8803014 3.9954151 6.7540588 3 5.625 C2.443125 4.99851562 1.88625 4.37203125 1.3125 3.7265625 C0 2 0 2 0 0 Z " fill="#FEF2DA" transform="translate(773,586)"/>
<path d="M0 0 C0.33 0.99 0.66 1.98 1 3 C0.34 3 -0.32 3 -1 3 C-1.33 4.32 -1.66 5.64 -2 7 C-3.65 5.02 -5.3 3.04 -7 1 C-4.50935112 0.31292445 -2.62113708 0 0 0 Z " fill="#EE994D" transform="translate(775,579)"/>
<path d="M0 0 C1.65 0 3.3 0 5 0 C5 1.32 5 2.64 5 4 C3.02 4.33 1.04 4.66 -1 5 C-0.67 3.35 -0.34 1.7 0 0 Z " fill="#FA9238" transform="translate(1155,572)"/>
<path d="M0 0 C4.23795734 -0.36325349 6.66753954 0.31551796 10 3 C10.640625 5.61328125 10.640625 5.61328125 11 8 C9.16399255 6.85845641 7.33125195 5.71165684 5.5 4.5625 C4.4790625 3.92441406 3.458125 3.28632812 2.40625 2.62890625 C1.6121875 2.09136719 0.818125 1.55382812 0 1 C0 0.67 0 0.34 0 0 Z " fill="#FDECD4" transform="translate(1019,560)"/>
<path d="M0 0 C1.32 0.66 2.64 1.32 4 2 C2.02 4.31 0.04 6.62 -2 9 C-3 5 -3 5 -1.5625 2.25 C-1.046875 1.5075 -0.53125 0.765 0 0 Z " fill="#EA9A52" transform="translate(1070,456)"/>
<path d="M0 0 C4.6875 3.61328125 4.6875 3.61328125 6 5 C6 5.99 6 6.98 6 8 C6.66 8 7.32 8 8 8 C8.33 9.32 8.66 10.64 9 12 C8.34 12 7.68 12 7 12 C7 11.34 7 10.68 7 10 C6.34 10 5.68 10 5 10 C5 8.68 5 7.36 5 6 C3.68 5.67 2.36 5.34 1 5 C0.67 3.35 0.34 1.7 0 0 Z " fill="#E99C5A" transform="translate(1072,338)"/>
<path d="M0 0 C3.63 0.33 7.26 0.66 11 1 C7.52630934 2.73684533 5.92380063 3.30084112 2.25 3.625 C1.45078125 3.69976563 0.6515625 3.77453125 -0.171875 3.8515625 C-0.77515625 3.90054688 -1.3784375 3.94953125 -2 4 C-1.34 2.68 -0.68 1.36 0 0 Z " fill="#E99B53" transform="translate(951,724)"/>
<path d="M0 0 C0.99 0.33 1.98 0.66 3 1 C0.525 6.94 0.525 6.94 -2 13 C-2.33 13 -2.66 13 -3 13 C-3.33 11.02 -3.66 9.04 -4 7 C-3.01 7 -2.02 7 -1 7 C-1.020625 6.030625 -1.04125 5.06125 -1.0625 4.0625 C-1 1 -1 1 0 0 Z " fill="#FEF3E1" transform="translate(1078,499)"/>
<path d="M0 0 C-0.5625 1.875 -0.5625 1.875 -2 4 C-6.10870902 5.59783129 -8.79911692 6.28617345 -13 5 C-11.21046815 4.16209211 -9.41830305 3.32980604 -7.625 2.5 C-6.62726563 2.0359375 -5.62953125 1.571875 -4.6015625 1.09375 C-2 0 -2 0 0 0 Z " fill="#FEEBD1" transform="translate(1051,480)"/>
<path d="M0 0 C1.03274898 2.68514734 1.07566569 3.7921588 0.07421875 6.54296875 C-0.38339844 7.41566406 -0.84101562 8.28835938 -1.3125 9.1875 C-1.76238281 10.06792969 -2.21226562 10.94835937 -2.67578125 11.85546875 C-4 14 -4 14 -6 15 C-4.36041242 9.76727367 -2.61047965 4.84803364 0 0 Z " fill="#E6A368" transform="translate(847,637)"/>
<path d="M0 0 C0.1875 2.375 0.1875 2.375 0 5 C-0.99 5.66 -1.98 6.32 -3 7 C-3.99 5.35 -4.98 3.7 -6 2 C-2.25 0 -2.25 0 0 0 Z " fill="#EB9B4C" transform="translate(766,568)"/>
<path d="M0 0 C1.32 0.33 2.64 0.66 4 1 C4.6875 4.3125 4.6875 4.3125 5 8 C3.5625 9.9375 3.5625 9.9375 2 11 C1.77213542 9.01432292 1.54427083 7.02864583 1.31640625 5.04296875 C1.02829265 2.80603607 1.02829265 2.80603607 0 0 Z " fill="#F39746" transform="translate(1162,560)"/>
<path d="M0 0 C0.68707555 2.49064888 1 4.37886292 1 7 C-0.175625 7.4640625 -0.175625 7.4640625 -1.375 7.9375 C-3.92330128 8.92875038 -3.92330128 8.92875038 -6 10 C-4.6302836 6.00499382 -2.74277578 3.19990508 0 0 Z " fill="#EBA15C" transform="translate(1094,478)"/>
<path d="M0 0 C2.89933109 5.59156709 4.25166799 9.58246635 4 16 C1.15072098 10.70848182 -0.28788143 6.04551009 0 0 Z " fill="#E69E60" transform="translate(836,416)"/>
<path d="M0 0 C-1.41478135 0.64995297 -2.83191487 1.29478722 -4.25 1.9375 C-5.03890625 2.29714844 -5.8278125 2.65679688 -6.640625 3.02734375 C-8.75823698 3.90033279 -10.76669362 4.51338508 -13 5 C-13 4.34 -13 3.68 -13 3 C-11.40084119 2.30093058 -9.79544955 1.61610532 -8.1875 0.9375 C-7.29417969 0.55464844 -6.40085937 0.17179688 -5.48046875 -0.22265625 C-3 -1 -3 -1 0 0 Z " fill="#E9A061" transform="translate(1139,593)"/>
<path d="M0 0 C0.33 0.99 0.66 1.98 1 3 C-0.423125 3.928125 -0.423125 3.928125 -1.875 4.875 C-4.94445109 6.81970969 -4.94445109 6.81970969 -7 9 C-7.66 8.34 -8.32 7.68 -9 7 C-6.03 4.69 -3.06 2.38 0 0 Z " fill="#EAA462" transform="translate(899,570)"/>
<path d="M0 0 C0.33 0 0.66 0 1 0 C1.5497272 5.63470383 -0.04952165 8.38987758 -3 13 C-3.66 13 -4.32 13 -5 13 C-4.54554036 11.58208592 -4.08625056 10.16571954 -3.625 8.75 C-3.24214844 7.56664062 -3.24214844 7.56664062 -2.8515625 6.359375 C-2.04826333 4.13372042 -1.10288338 2.09068328 0 0 Z " fill="#FDF0D9" transform="translate(1179,544)"/>
<path d="M0 0 C0 0.99 0 1.98 0 3 C-3.96 3 -7.92 3 -12 3 C-7.42164847 0.71082423 -5.08462738 0 0 0 Z " fill="#E8A162" transform="translate(952,548)"/>
<path d="M0 0 C0.66 0 1.32 0 2 0 C1.88490339 1.41750563 1.75746342 2.83401169 1.625 4.25 C1.55539062 5.03890625 1.48578125 5.8278125 1.4140625 6.640625 C0.98492887 9.085877 0.21399362 10.84836903 -1 13 C-1.02708567 11.39592672 -1.04643483 9.7917215 -1.0625 8.1875 C-1.07410156 7.29417969 -1.08570313 6.40085937 -1.09765625 5.48046875 C-1 3 -1 3 0 0 Z " fill="#FEF4DE" transform="translate(977,387)"/>
<path d="M0 0 C1.32 0.33 2.64 0.66 4 1 C1.03 5.95 1.03 5.95 -2 11 C-2.33 9.68 -2.66 8.36 -3 7 C-2.34 7 -1.68 7 -1 7 C-0.67 4.69 -0.34 2.38 0 0 Z " fill="#FEEDD3" transform="translate(1084,487)"/>
<path d="M0 0 C0.99 0.33 1.98 0.66 3 1 C1.02 3.31 -0.96 5.62 -3 8 C-3.66 6.68 -4.32 5.36 -5 4 C-4.34 3.67 -3.68 3.34 -3 3 C-2.34 3.33 -1.68 3.66 -1 4 C-0.67 2.68 -0.34 1.36 0 0 Z " fill="#FCF7F0" transform="translate(1098,470)"/>
<path d="M0 0 C0.66 0 1.32 0 2 0 C2 0.99 2 1.98 2 3 C1.34 3 0.68 3 0 3 C0.33 3.99 0.66 4.98 1 6 C0.34 6.66 -0.32 7.32 -1 8 C-2.32 6.35 -3.64 4.7 -5 3 C-4.01 3 -3.02 3 -2 3 C-1.34 2.01 -0.68 1.02 0 0 Z " fill="#F39D53" transform="translate(997,466)"/>
<path d="M0 0 C2 2 2 2 2.1953125 3.9453125 C2.13020833 5.96354167 2.06510417 7.98177083 2 10 C1.34 10 0.68 10 0 10 C-0.19412181 8.52168779 -0.38012131 7.04230684 -0.5625 5.5625 C-0.66691406 4.73878906 -0.77132812 3.91507812 -0.87890625 3.06640625 C-0.91886719 2.38449219 -0.95882812 1.70257813 -1 1 C-0.67 0.67 -0.34 0.34 0 0 Z " fill="#FC9030" transform="translate(981,432)"/>
<path d="M0 0 C0.33 0 0.66 0 1 0 C2.05699482 5.28497409 2.05699482 5.28497409 2 8 C0.0625 10.5 0.0625 10.5 -2 12 C-1.85831863 10.56208484 -1.71148957 9.1246763 -1.5625 7.6875 C-1.48128906 6.88699219 -1.40007813 6.08648437 -1.31640625 5.26171875 C-1 3 -1 3 0 0 Z " fill="#EC9D58" transform="translate(980,384)"/>
<path d="M0 0 C0.33 0.66 0.66 1.32 1 2 C1.66 2.33 2.32 2.66 3 3 C2.01 4.32 1.02 5.64 0 7 C-1.65 5.35 -3.3 3.7 -5 2 C-3.35 1.34 -1.7 0.68 0 0 Z " fill="#FDF5E6" transform="translate(921,339)"/>
<path d="M0 0 C1.32 0.33 2.64 0.66 4 1 C0.04 4.465 0.04 4.465 -4 8 C-4.33 7.01 -4.66 6.02 -5 5 C-4.360625 4.731875 -3.72125 4.46375 -3.0625 4.1875 C-0.66868314 3.11332248 -0.66868314 3.11332248 0 0 Z " fill="#FEEED6" transform="translate(856,332)"/>
<path d="M0 0 C4.571279 0.54855348 8.67435795 1.41744803 13 3 C13 3.99 13 4.98 13 6 C11.68 5.67 10.36 5.34 9 5 C9 4.34 9 3.68 9 3 C4.545 2.01 4.545 2.01 0 1 C0 0.67 0 0.34 0 0 Z " fill="#FEE7C6" transform="translate(1053,326)"/>
<path d="M0 0 C0.33 0 0.66 0 1 0 C1 3.96 1 7.92 1 12 C-2.375 7.5 -2.375 7.5 -3 4 C-2.34 3.67 -1.68 3.34 -1 3 C-0.67 2.01 -0.34 1.02 0 0 Z " fill="#EB9C53" transform="translate(831,715)"/>
<path d="M0 0 C0.99 0 1.98 0 3 0 C3.69965443 1.26418246 4.38434763 2.53665402 5.0625 3.8125 C5.63677734 4.87404297 5.63677734 4.87404297 6.22265625 5.95703125 C7 8 7 8 6 11 C4.9944239 9.54550599 3.99569565 8.08627557 3 6.625 C2.443125 5.81289063 1.88625 5.00078125 1.3125 4.1640625 C0 2 0 2 0 0 Z " fill="#FEEBCF" transform="translate(1076,616)"/>
<path d="M0 0 C0.66 1.32 1.32 2.64 2 4 C0.68 5.32 -0.64 6.64 -2 8 C-2.99 7.67 -3.98 7.34 -5 7 C-3.35 4.69 -1.7 2.38 0 0 Z " fill="#FDEED9" transform="translate(852,584)"/>
<path d="M0 0 C0.99 0 1.98 0 3 0 C3 0.99 3 1.98 3 3 C4.98 3 6.96 3 9 3 C5.25 6 5.25 6 3 6 C3 5.34 3 4.68 3 4 C2.01 3.67 1.02 3.34 0 3 C0 2.01 0 1.02 0 0 Z " fill="#ED994F" transform="translate(1136,586)"/>
<path d="M0 0 C0.33 0.99 0.66 1.98 1 3 C0.01 3.495 0.01 3.495 -1 4 C-2.0409066 5.64142963 -3.04504326 7.30712215 -4 9 C-4.99 8.34 -5.98 7.68 -7 7 C-4.69 4.69 -2.38 2.38 0 0 Z " fill="#FEF6E0" transform="translate(1159,577)"/>
<path d="M0 0 C1.32 0.33 2.64 0.66 4 1 C1.36 2.98 -1.28 4.96 -4 7 C-2.73033708 1.92134831 -2.73033708 1.92134831 0 0 Z " fill="#FEF3E1" transform="translate(892,572)"/>
<path d="M0 0 C1.41493551 -0.10884119 2.83232943 -0.18597617 4.25 -0.25 C5.03890625 -0.29640625 5.8278125 -0.3428125 6.640625 -0.390625 C9 0 9 0 13 4 C8.71 3.01 4.42 2.02 0 1 C0 0.67 0 0.34 0 0 Z " fill="#FDE6C6" transform="translate(989,548)"/>
<path d="M0 0 C4.29 1.65 8.58 3.3 13 5 C9.05097194 5.98725702 8.33689646 6.09892472 4.8125 4.75 C3.77029297 4.37101562 3.77029297 4.37101562 2.70703125 3.984375 C1 3 1 3 0 0 Z " fill="#FDF1D9" transform="translate(879,481)"/>
<path d="M0 0 C0.66 0.33 1.32 0.66 2 1 C2 1.99 2 2.98 2 4 C3.32 4 4.64 4 6 4 C6 4.66 6 5.32 6 6 C3.23723823 5.47731534 0.6739124 4.89130413 -2 4 C-2 3.01 -2 2.02 -2 1 C-1.34 0.67 -0.68 0.34 0 0 Z " fill="#FE912E" transform="translate(759,474)"/>
<path d="M0 0 C1.32 0.33 2.64 0.66 4 1 C2.35 2.98 0.7 4.96 -1 7 C-1.66 6.67 -2.32 6.34 -3 6 C-2.67 4.68 -2.34 3.36 -2 2 C-1.34 2 -0.68 2 0 2 C0 1.34 0 0.68 0 0 Z " fill="#ED984B" transform="translate(934,465)"/>
<path d="M0 0 C0.66 0 1.32 0 2 0 C2.33 0.66 2.66 1.32 3 2 C3.99 2.33 4.98 2.66 6 3 C6 4.98 6 6.96 6 9 C0.42857143 3.85714286 0.42857143 3.85714286 0 0 Z " fill="#EE984E" transform="translate(986,459)"/>
<path d="M0 0 C1.5625 1 1.5625 1 3 3 C2.96726452 5.76614782 2.49404328 8.26030547 2 11 C-0.67927341 6.98108988 -0.15601248 4.75838077 0 0 Z " fill="#FEF4E1" transform="translate(1089,360)"/>
<path d="M0 0 C3.3 0 6.6 0 10 0 C7.09907498 1.93395001 6.10325263 2.30131941 2.8125 2.625 C1.554375 2.74875 0.29625 2.8725 -1 3 C-0.67 2.01 -0.34 1.02 0 0 Z " fill="#E6A061" transform="translate(886,746)"/>
<path d="M0 0 C0.33 0 0.66 0 1 0 C1 1.65 1 3.3 1 5 C0.360625 5.28875 -0.27875 5.5775 -0.9375 5.875 C-3.15206079 6.82823451 -3.15206079 6.82823451 -4 9 C-4.66 8.67 -5.32 8.34 -6 8 C-5.02471263 6.66382648 -4.04466681 5.3311249 -3.0625 4 C-2.24458984 2.88625 -2.24458984 2.88625 -1.41015625 1.75 C-0.94480469 1.1725 -0.47945312 0.595 0 0 Z " fill="#FCE9CF" transform="translate(1166,568)"/>
<path d="M0 0 C0.33 0 0.66 0 1 0 C1.08121924 1.60332791 1.13929134 3.20784026 1.1875 4.8125 C1.23970703 6.15248047 1.23970703 6.15248047 1.29296875 7.51953125 C0.95081002 10.41647515 0.24606427 11.22555028 -2 13 C-1.48041715 8.62065881 -0.94324258 4.31196609 0 0 Z " fill="#FEEBCF" transform="translate(1184,525)"/>
<path d="M0 0 C2.50037734 2.17424117 3.43628586 3.73045798 4 7 C2.68 7 1.36 7 0 7 C0 4.69 0 2.38 0 0 Z " fill="#EE9D54" transform="translate(844,503)"/>
<path d="M0 0 C5.57142857 5.14285714 5.57142857 5.14285714 6 9 C3.5625 7.875 3.5625 7.875 1 6 C0.1875 2.8125 0.1875 2.8125 0 0 Z " fill="#FEEACB" transform="translate(986,461)"/>
<path d="M0 0 C0.33 0 0.66 0 1 0 C1 2.31 1 4.62 1 7 C-0.65 7.66 -2.3 8.32 -4 9 C-2.80100302 5.9168649 -1.52299523 2.93720508 0 0 Z " fill="#FEEECF" transform="translate(1081,445)"/>
<path d="M0 0 C0.33 0 0.66 0 1 0 C1.21278058 4.46839215 0.59138085 7.82262526 -1 12 C-1.33 12 -1.66 12 -2 12 C-2.05422947 10.5629191 -2.09289723 9.12524538 -2.125 7.6875 C-2.14820313 6.88699219 -2.17140625 6.08648437 -2.1953125 5.26171875 C-2 3 -2 3 0 0 Z " fill="#E99D55" transform="translate(1089,418)"/>
<path d="M0 0 C0.66 0.66 1.32 1.32 2 2 C2.99 2 3.98 2 5 2 C4.67 2.66 4.34 3.32 4 4 C4.27942455 5.67654729 4.60828247 7.34608154 5 9 C2.5 6.75 2.5 6.75 0 4 C0 2.68 0 1.36 0 0 Z " fill="#FEECD6" transform="translate(928,351)"/>
<path d="M0 0 C2.475 0.99 2.475 0.99 5 2 C2.4345406 4.5654594 0.52313332 4.54046087 -3 5 C-2.01 3.35 -1.02 1.7 0 0 Z " fill="#EF9A50" transform="translate(829,600)"/>
<path d="M0 0 C0.33 0 0.66 0 1 0 C1.36923077 7.50769231 1.36923077 7.50769231 -0.5 10 C-0.995 10.33 -1.49 10.66 -2 11 C-3 9 -3 9 -2.44140625 6.8359375 C-2.15136719 6.02382813 -1.86132812 5.21171875 -1.5625 4.375 C-1.27503906 3.55773437 -0.98757813 2.74046875 -0.69140625 1.8984375 C-0.46324219 1.27195312 -0.23507812 0.64546875 0 0 Z " fill="#FCE9CC" transform="translate(856,572)"/>
<path d="M0 0 C2 3 2 3 2 5 C2.66 5 3.32 5 4 5 C3.67 5.66 3.34 6.32 3 7 C0.69 5.35 -1.62 3.7 -4 2 C-2.68 1.34 -1.36 0.68 0 0 Z " fill="#ECA467" transform="translate(868,469)"/>
<path d="M0 0 C0.66 0.33 1.32 0.66 2 1 C0.68 3.31 -0.64 5.62 -2 8 C-2.33 8 -2.66 8 -3 8 C-3.1875 5.125 -3.1875 5.125 -3 2 C-2.01 1.34 -1.02 0.68 0 0 Z " fill="#EB9C54" transform="translate(1077,449)"/>
<path d="M0 0 C3 1 3 1 4.25 3.3125 C5.04631835 6.16597407 4.8214856 7.24802325 4 10 C3.32845067 8.71086513 2.66291141 7.41859796 2 6.125 C1.62875 5.40570312 1.2575 4.68640625 0.875 3.9453125 C0 2 0 2 0 0 Z " fill="#FEF0D5" transform="translate(1100,652)"/>
<path d="M0 0 C2.29633824 3.44450737 2.54016485 5.93812283 3 10 C2.01 9.34 1.02 8.68 0 8 C-0.40843923 5.28796348 -0.13336867 2.7562858 0 0 Z " fill="#E69F5E" transform="translate(943,384)"/>
<path d="M0 0 C2.86724686 0.57344937 3.8614515 0.8614515 6 3 C6.625 5.625 6.625 5.625 7 8 C6.34 8 5.68 8 5 8 C3.94228261 6.36935236 2.94726954 4.69719127 2 3 C1.34 2.01 0.68 1.02 0 0 Z " fill="#FDEBD3" transform="translate(1073,338)"/>
<path d="M0 0 C5.75 0.75 5.75 0.75 8 3 C5.36 3.33 2.72 3.66 0 4 C0 2.68 0 1.36 0 0 Z " fill="#EE9B50" transform="translate(897,331)"/>
<path d="M0 0 C6.52307692 -0.36923077 6.52307692 -0.36923077 8.9375 1.5 C9.288125 1.995 9.63875 2.49 10 3 C2.25 2.25 2.25 2.25 0 0 Z " fill="#EDA464" transform="translate(1054,747)"/>
<path d="M0 0 C2.4375 0.625 2.4375 0.625 5 2 C5.8125 5.125 5.8125 5.125 6 8 C5.34 8 4.68 8 4 8 C2.68 5.36 1.36 2.72 0 0 Z " fill="#ECA86B" transform="translate(832,728)"/>
<path d="M0 0 C2.97 0.495 2.97 0.495 6 1 C6 1.99 6 2.98 6 4 C6.66 4 7.32 4 8 4 C7.67 4.66 7.34 5.32 7 6 C5.83054208 5.19152271 4.66449539 4.37810888 3.5 3.5625 C2.8503125 3.11003906 2.200625 2.65757812 1.53125 2.19140625 C1.0259375 1.79824219 0.520625 1.40507813 0 1 C0 0.67 0 0.34 0 0 Z " fill="#E7A161" transform="translate(776,588)"/>
<path d="M0 0 C0.66 0.33 1.32 0.66 2 1 C1.360625 1.268125 0.72125 1.53625 0.0625 1.8125 C-2.33131686 2.88667752 -2.33131686 2.88667752 -3 6 C-4.32 5.67 -5.64 5.34 -7 5 C-4.69 3.35 -2.38 1.7 0 0 Z " fill="#E79E5E" transform="translate(908,564)"/>
<path d="M0 0 C0.33 0.66 0.66 1.32 1 2 C0.01 3.32 -0.98 4.64 -2 6 C-3.32 5.67 -4.64 5.34 -6 5 C-4.02 3.35 -2.04 1.7 0 0 Z " fill="#FEEBD7" transform="translate(931,474)"/>
<path d="M0 0 C6.875 3.75 6.875 3.75 8 6 C5.69 5.34 3.38 4.68 1 4 C0.67 2.68 0.34 1.36 0 0 Z " fill="#E99A55" transform="translate(816,473)"/>
<path d="M0 0 C1.65 0 3.3 0 5 0 C5.33 0.99 5.66 1.98 6 3 C6.66 3.66 7.32 4.32 8 5 C5 5 5 5 2.3125 2.5 C1.549375 1.675 0.78625 0.85 0 0 Z " fill="#FEEDD5" transform="translate(1066,332)"/>
</svg>
